<?xml version="1.0" encoding="utf-8"?>
<svg version="1.1" xmlns:xlink="http://www.w3.org/1999/xlink" width="78px" height="78px" xmlns="http://www.w3.org/2000/svg">
  <defs>
    <filter x="452px" y="1927px" width="78px" height="78px" filterUnits="userSpaceOnUse" id="filter256">
      <feOffset dx="1" dy="1" in="SourceAlpha" result="shadowOffsetInner" />
      <feGaussianBlur stdDeviation="2.5" in="shadowOffsetInner" result="shadowGaussian" />
      <feComposite in2="shadowGaussian" operator="atop" in="SourceAlpha" result="shadowComposite" />
      <feColorMatrix type="matrix" values="0 0 0 0 0  0 0 0 0 0  0 0 0 0 0  0 0 0 0.698039215686274 0  " in="shadowComposite" />
    </filter>
    <g id="widget257">
      <path d="M 490 1931  C 509.04 1931  524 1945.96  524 1965  C 524 1984.04  509.04 1999  490 1999  C 470.96 1999  456 1984.04  456 1965  C 456 1945.96  470.96 1931  490 1931  Z " fill-rule="nonzero" fill="#009dd9" stroke="none" />
      <path d="M 490 1931.5  C 508.76 1931.5  523.5 1946.24  523.5 1965  C 523.5 1983.76  508.76 1998.5  490 1998.5  C 471.24 1998.5  456.5 1983.76  456.5 1965  C 456.5 1946.24  471.24 1931.5  490 1931.5  Z " stroke-width="1" stroke="#ffffff" fill="none" />
    </g>
  </defs>
  <g transform="matrix(1 0 0 1 -452 -1927 )">
    <use xlink:href="#widget257" filter="url(#filter256)" />
    <use xlink:href="#widget257" />
  </g>
</svg>