<?xml version="1.0" encoding="utf-8"?>
<svg version="1.1" xmlns:xlink="http://www.w3.org/1999/xlink" width="33px" height="45px" xmlns="http://www.w3.org/2000/svg">
  <defs>
    <mask fill="white" id="clip42">
      <path d="M 23 12.25  C 23 21  16.1 26.25  11.5 35  C 7.21691865076349 26.8528343900393  0.93983884020335 21.7400142647015  0.0952454553644202 14.0109532968873  C 0.0327513362614411 13.4390557834242  0 12.8528343900393  0 12.25  C 0 7.7  2.30000000000001 0  11.5 0  C 20.7 0  23 7.7  23 12.25  Z " fill-rule="evenodd" />
    </mask>
    <filter x="169px" y="114px" width="33px" height="45px" filterUnits="userSpaceOnUse" id="filter43">
      <feOffset dx="1" dy="1" in="SourceAlpha" result="shadowOffsetInner" />
      <feGaussianBlur stdDeviation="2.5" in="shadowOffsetInner" result="shadowGaussian" />
      <feComposite in2="shadowGaussian" operator="atop" in="SourceAlpha" result="shadowComposite" />
      <feColorMatrix type="matrix" values="0 0 0 0 0  0 0 0 0 0  0 0 0 0 0  0 0 0 0.698039215686274 0  " in="shadowComposite" />
    </filter>
    <g id="widget44">
      <path d="M 23 12.25  C 23 21  16.1 26.25  11.5 35  C 7.21691865076349 26.8528343900393  0.93983884020335 21.7400142647015  0.0952454553644202 14.0109532968873  C 0.0327513362614411 13.4390557834242  0 12.8528343900393  0 12.25  C 0 7.7  2.30000000000001 0  11.5 0  C 20.7 0  23 7.7  23 12.25  Z " fill-rule="nonzero" fill="#f59a23" stroke="none" transform="matrix(1 0 0 1 173 118 )" />
      <path d="M 23 12.25  C 23 21  16.1 26.25  11.5 35  C 7.21691865076349 26.8528343900393  0.93983884020335 21.7400142647015  0.0952454553644202 14.0109532968873  C 0.0327513362614411 13.4390557834242  0 12.8528343900393  0 12.25  C 0 7.7  2.30000000000001 0  11.5 0  C 20.7 0  23 7.7  23 12.25  Z " stroke-width="2" stroke="#ffffff" fill="none" transform="matrix(1 0 0 1 173 118 )" mask="url(#clip42)" />
    </g>
  </defs>
  <g transform="matrix(1 0 0 1 -169 -114 )">
    <use xlink:href="#widget44" filter="url(#filter43)" />
    <use xlink:href="#widget44" />
  </g>
</svg>