<?xml version="1.0" encoding="utf-8"?>
<svg version="1.1" xmlns:xlink="http://www.w3.org/1999/xlink" width="40px" height="40px" xmlns="http://www.w3.org/2000/svg">
  <defs>
    <filter x="106px" y="363px" width="40px" height="40px" filterUnits="userSpaceOnUse" id="filter40">
      <feOffset dx="1" dy="1" in="SourceAlpha" result="shadowOffsetInner" />
      <feGaussianBlur stdDeviation="2.5" in="shadowOffsetInner" result="shadowGaussian" />
      <feComposite in2="shadowGaussian" operator="atop" in="SourceAlpha" result="shadowComposite" />
      <feColorMatrix type="matrix" values="0 0 0 0 0  0 0 0 0 0  0 0 0 0 0  0 0 0 0.698039215686274 0  " in="shadowComposite" />
    </filter>
    <g id="widget41">
      <path d="M 125 367  C 133.4 367  140 373.6  140 382  C 140 390.4  133.4 397  125 397  C 116.6 397  110 390.4  110 382  C 110 373.6  116.6 367  125 367  Z " fill-rule="nonzero" fill="#009dd9" stroke="none" />
      <path d="M 125 367.5  C 133.12 367.5  139.5 373.88  139.5 382  C 139.5 390.12  133.12 396.5  125 396.5  C 116.88 396.5  110.5 390.12  110.5 382  C 110.5 373.88  116.88 367.5  125 367.5  Z " stroke-width="1" stroke="#ffffff" fill="none" />
    </g>
  </defs>
  <g transform="matrix(1 0 0 1 -106 -363 )">
    <use xlink:href="#widget41" filter="url(#filter40)" />
    <use xlink:href="#widget41" />
  </g>
</svg>