<?xml version="1.0" encoding="utf-8"?>
<svg version="1.1" xmlns:xlink="http://www.w3.org/1999/xlink" width="185px" height="178px" xmlns="http://www.w3.org/2000/svg">
  <g transform="matrix(1 0 0 1 -1075 -889 )">
    <path d="M 1167.5 889.5  C 1219.02 889.5  1259.5 928.44  1259.5 978  C 1259.5 1027.56  1219.02 1066.5  1167.5 1066.5  C 1115.98 1066.5  1075.5 1027.56  1075.5 978  C 1075.5 928.44  1115.98 889.5  1167.5 889.5  Z " fill-rule="nonzero" fill="#ffffff" stroke="none" fill-opacity="0" />
    <path d="M 1167.5 889.5  C 1219.02 889.5  1259.5 928.44  1259.5 978  C 1259.5 1027.56  1219.02 1066.5  1167.5 1066.5  C 1115.98 1066.5  1075.5 1027.56  1075.5 978  C 1075.5 928.44  1115.98 889.5  1167.5 889.5  Z " stroke-width="1" stroke-dasharray="17,8" stroke="#797979" fill="none" stroke-dashoffset="0.5" />
  </g>
</svg>