<?xml version="1.0" encoding="utf-8"?>
<svg version="1.1" xmlns:xlink="http://www.w3.org/1999/xlink" width="68px" height="90px" xmlns="http://www.w3.org/2000/svg">
  <defs>
    <filter x="1138px" y="846px" width="68px" height="90px" filterUnits="userSpaceOnUse" id="filter121">
      <feOffset dx="1" dy="1" in="SourceAlpha" result="shadowOffsetInner" />
      <feGaussianBlur stdDeviation="2.5" in="shadowOffsetInner" result="shadowGaussian" />
      <feComposite in2="shadowGaussian" operator="atop" in="SourceAlpha" result="shadowComposite" />
      <feColorMatrix type="matrix" values="0 0 0 0 0  0 0 0 0 0  0 0 0 0 0  0 0 0 0.698039215686274 0  " in="shadowComposite" />
    </filter>
    <g id="widget122">
      <path d="M 1171 929.014489709461  C 1159.6 909.393532128899  1142.5 897.620957580562  1142.5 878  C 1142.5 867.785714285714  1148.2 850.5  1171 850.5  C 1193.8 850.5  1199.5 867.785714285714  1199.5 878  C 1199.5 897.620957580562  1182.4 909.393532128899  1171 929.014489709461  Z " fill-rule="nonzero" fill="#ff9900" stroke="none" />
      <path d="M 1171 930  C 1159.4 910  1142 898  1142 878  C 1142 867.6  1147.8 850  1171 850  C 1194.2 850  1200 867.6  1200 878  C 1200 898  1182.6 910  1171 930  Z M 1171 928.028979418923  C 1182.2 908.787064257799  1199 897.241915161124  1199 878  C 1199 867.971428571429  1193.4 851  1171 851  C 1148.6 851  1143 867.971428571429  1143 878  C 1143 897.241915161124  1159.8 908.787064257799  1171 928.028979418923  Z " fill-rule="nonzero" fill="#ffffff" stroke="none" />
    </g>
  </defs>
  <g transform="matrix(1 0 0 1 -1138 -846 )">
    <use xlink:href="#widget122" filter="url(#filter121)" />
    <use xlink:href="#widget122" />
  </g>
</svg>