<?xml version="1.0" encoding="utf-8"?>
<svg version="1.1" xmlns:xlink="http://www.w3.org/1999/xlink" width="78px" height="78px" xmlns="http://www.w3.org/2000/svg">
  <defs>
    <filter x="1131px" y="892px" width="78px" height="78px" filterUnits="userSpaceOnUse" id="filter132">
      <feOffset dx="1" dy="1" in="SourceAlpha" result="shadowOffsetInner" />
      <feGaussianBlur stdDeviation="2.5" in="shadowOffsetInner" result="shadowGaussian" />
      <feComposite in2="shadowGaussian" operator="atop" in="SourceAlpha" result="shadowComposite" />
      <feColorMatrix type="matrix" values="0 0 0 0 0  0 0 0 0 0  0 0 0 0 0  0 0 0 0.698039215686274 0  " in="shadowComposite" />
    </filter>
    <g id="widget133">
      <path d="M 1169 896  C 1188.04 896  1203 910.96  1203 930  C 1203 949.04  1188.04 964  1169 964  C 1149.96 964  1135 949.04  1135 930  C 1135 910.96  1149.96 896  1169 896  Z " fill-rule="nonzero" fill="#009dd9" stroke="none" />
      <path d="M 1169 896.5  C 1187.76 896.5  1202.5 911.24  1202.5 930  C 1202.5 948.76  1187.76 963.5  1169 963.5  C 1150.24 963.5  1135.5 948.76  1135.5 930  C 1135.5 911.24  1150.24 896.5  1169 896.5  Z " stroke-width="1" stroke="#ffffff" fill="none" />
    </g>
  </defs>
  <g transform="matrix(1 0 0 1 -1131 -892 )">
    <use xlink:href="#widget133" filter="url(#filter132)" />
    <use xlink:href="#widget133" />
  </g>
</svg>