<?xml version="1.0" encoding="utf-8"?>
<svg version="1.1" xmlns:xlink="http://www.w3.org/1999/xlink" width="17px" height="19px" xmlns="http://www.w3.org/2000/svg">
  <g transform="matrix(1 0 0 1 -989 -928 )">
    <path d="M 16.5726902173913 8.40243902439024  C 16.8575634057971 8.6869918699187  17 9.05284552845528  17 9.5  C 17 9.9390243902439  16.8575634057971 10.3089430894309  16.5726902173913 10.609756097561  L 9.05434782608696 18.5487804878049  C 8.75407608695652 18.849593495935  8.40375905797102 19  8.00339673913044 19  C 7.61073369565217 19  7.26426630434783 18.849593495935  6.96399456521739 18.5487804878049  L 6.09782608695652 17.6341463414634  C 5.80525362318841 17.3252032520325  5.65896739130435 16.9552845528455  5.65896739130435 16.5243902439024  C 5.65896739130435 16.0934959349594  5.80525362318841 15.7235772357724  6.09782608695652 15.4146341463415  L 9.48165760869565 11.8414634146341  L 1.35122282608696 11.8414634146341  C 0.950860507246377 11.8414634146341  0.625566123188406 11.6890243902439  0.375339673913044 11.3841463414634  C 0.125113224637681 11.0792682926829  0 10.7113821138211  0 10.280487804878  L 0 8.71951219512195  C 0 8.28861788617886  0.125113224637681 7.92073170731707  0.375339673913044 7.61585365853659  C 0.625566123188406 7.3109756097561  0.950860507246377 7.15853658536585  1.35122282608696 7.15853658536585  L 9.48165760869565 7.15853658536585  L 6.09782608695652 3.57317073170732  C 5.80525362318841 3.28048780487805  5.65896739130435 2.91463414634146  5.65896739130435 2.47560975609756  C 5.65896739130435 2.03658536585366  5.80525362318841 1.67073170731707  6.09782608695652 1.3780487804878  L 6.96399456521739 0.463414634146342  C 7.25656702898551 0.154471544715446  7.60303442028986 0  8.00339673913044 0  C 8.41145833333333 0  8.76177536231884 0.154471544715446  9.05434782608696 0.463414634146342  L 16.5726902173913 8.40243902439024  Z " fill-rule="nonzero" fill="#7f7f7f" stroke="none" transform="matrix(1 0 0 1 989 928 )" />
  </g>
</svg>