<?xml version="1.0" encoding="utf-8"?>
<svg version="1.1" xmlns:xlink="http://www.w3.org/1999/xlink" width="10px" height="10px" xmlns="http://www.w3.org/2000/svg">
  <g transform="matrix(1 0 0 1 -950 -835 )">
    <path d="M 955 835  C 957.8 835  960 837.2  960 840  C 960 842.8  957.8 845  955 845  C 952.2 845  950 842.8  950 840  C 950 837.2  952.2 835  955 835  Z " fill-rule="nonzero" fill="#ffffff" stroke="none" />
    <path d="M 955 835.5  C 957.52 835.5  959.5 837.48  959.5 840  C 959.5 842.52  957.52 844.5  955 844.5  C 952.48 844.5  950.5 842.52  950.5 840  C 950.5 837.48  952.48 835.5  955 835.5  Z " stroke-width="1" stroke="#797979" fill="none" />
  </g>
</svg>