<?xml version="1.0" encoding="utf-8"?>
<svg version="1.1" xmlns:xlink="http://www.w3.org/1999/xlink" width="230px" height="140px" xmlns="http://www.w3.org/2000/svg">
  <defs>
    <mask fill="white" id="clip351">
      <path d="M 0 122.5  L 0 17.5  C 0 7.70000000000016  3.6142857142857 0  8.21428571428571 0  L 90.7271557271584 0  L 221.785714285714 0  C 226.385714285714 0  230 7.70000000000016  230 17.5  L 230 122.5  C 230 132.3  226.385714285714 140  221.785714285714 140  L 87.8704137392646 140  L 8.21428571428571 140  C 3.6142857142857 140  0 132.3  0 122.5  Z " fill-rule="evenodd" />
    </mask>
  </defs>
  <g transform="matrix(1 0 0 1 -425 -1303 )">
    <path d="M 0 122.5  L 0 17.5  C 0 7.70000000000016  3.6142857142857 0  8.21428571428571 0  L 90.7271557271584 0  L 221.785714285714 0  C 226.385714285714 0  230 7.70000000000016  230 17.5  L 230 122.5  C 230 132.3  226.385714285714 140  221.785714285714 140  L 87.8704137392646 140  L 8.21428571428571 140  C 3.6142857142857 140  0 132.3  0 122.5  Z " fill-rule="nonzero" fill="#ffffff" stroke="none" transform="matrix(1 0 0 1 425 1303 )" />
    <path d="M 0 122.5  L 0 17.5  C 0 7.70000000000016  3.6142857142857 0  8.21428571428571 0  L 90.7271557271584 0  L 221.785714285714 0  C 226.385714285714 0  230 7.70000000000016  230 17.5  L 230 122.5  C 230 132.3  226.385714285714 140  221.785714285714 140  L 87.8704137392646 140  L 8.21428571428571 140  C 3.6142857142857 140  0 132.3  0 122.5  Z " stroke-width="2" stroke="#797979" fill="none" transform="matrix(1 0 0 1 425 1303 )" mask="url(#clip351)" />
  </g>
</svg>